<?xml version="1.0" standalone="no"?>
<!DOCTYPE svg PUBLIC "-//W3C//DTD SVG 20010904//EN"
 "http://www.w3.org/TR/2001/REC-SVG-20010904/DTD/svg10.dtd">
<svg version="1.0" xmlns="http://www.w3.org/2000/svg"
 width="318.000000pt" height="159.000000pt" viewBox="0 0 318.000000 159.000000"
 preserveAspectRatio="xMidYMid meet">

<g transform="translate(0.000000,159.000000) scale(0.100000,-0.100000)"
fill="#000000" stroke="none">
<path d="M1470 1513 c-116 -19 -249 -81 -344 -159 -254 -209 -333 -564 -193
-864 17 -36 33 -67 37 -70 4 -3 14 -19 23 -35 8 -17 42 -59 76 -94 l61 -63 38
20 c37 19 56 20 411 18 292 -1 373 -4 380 -14 5 -8 21 -11 45 -9 l38 4 -23
-21 c-13 -12 -46 -36 -74 -53 -27 -18 -46 -33 -42 -33 5 0 41 21 80 46 263
170 389 489 312 789 -23 91 -98 232 -161 302 -59 67 -185 156 -271 191 -103
43 -282 64 -393 45z m449 -314 c31 -56 -17 -115 -94 -113 -22 1 -71 11 -109
23 -122 38 -204 22 -281 -54 -60 -60 -89 -134 -93 -237 -6 -135 35 -238 129
-322 77 -69 181 -93 282 -65 30 8 37 14 32 27 -21 50 -26 108 -21 219 l6 123
-44 -6 c-34 -5 -58 -1 -99 16 -57 24 -83 22 -94 -6 -7 -19 15 -36 40 -28 12 4
17 0 17 -13 0 -25 -19 -43 -46 -43 -62 0 -65 113 -3 145 38 20 70 19 167 -6
65 -16 88 -18 119 -10 60 17 65 15 43 -21 -17 -29 -20 -51 -20 -174 0 -135 1
-143 25 -179 32 -46 24 -58 -53 -82 -74 -22 -261 -25 -312 -4 -54 23 -137 88
-172 134 -71 97 -100 220 -79 334 34 185 166 305 340 307 45 1 107 -7 153 -18
63 -16 79 -17 92 -7 24 20 20 41 -7 41 -33 0 -40 10 -20 32 25 28 83 21 102
-13z m-346 -866 c-7 -2 -19 -2 -25 0 -7 3 -2 5 12 5 14 0 19 -2 13 -5z m538
-8 c11 6 11 5 2 -5 -12 -14 -33 -6 -33 13 0 8 3 7 9 -2 5 -8 14 -10 22 -6z
m-997 -41 c7 -19 2 -18 -19 6 -16 17 -16 20 -3 15 9 -4 19 -13 22 -21z m933
-6 c9 -10 5 -13 -18 -15 -25 -2 -28 1 -27 22 2 18 6 22 18 15 9 -5 22 -15 27
-22z m43 7 c-7 -9 -15 -13 -17 -11 -7 7 7 26 19 26 6 0 6 -6 -2 -15z"/>
<path d="M2010 280 c0 -5 5 -10 10 -10 6 0 10 5 10 10 0 6 -4 10 -10 10 -5 0
-10 -4 -10 -10z"/>
<path d="M1150 216 c8 -7 42 -28 75 -45 37 -20 50 -25 35 -12 -14 11 -29 21
-35 21 -5 0 -3 5 5 11 12 9 12 10 -3 5 -11 -4 -31 2 -47 14 -32 23 -52 27 -30
6z"/>
<path d="M1238 213 c7 -3 16 -2 19 1 4 3 -2 6 -13 5 -11 0 -14 -3 -6 -6z"/>
<path d="M1928 213 c6 -2 18 -2 25 0 6 3 1 5 -13 5 -14 0 -19 -2 -12 -5z"/>
<path d="M1329 120 c24 -11 55 -23 70 -26 14 -2 4 4 -24 16 -68 28 -100 35
-46 10z"/>
<path d="M1845 125 c-16 -7 -23 -14 -15 -14 8 0 26 6 40 14 32 18 14 18 -25 0z"/>
<path d="M1770 100 c-18 -12 -2 -12 25 0 13 6 15 9 5 9 -8 0 -22 -4 -30 -9z"/>
<path d="M1443 83 c9 -2 23 -2 30 0 6 3 -1 5 -18 5 -16 0 -22 -2 -12 -5z"/>
<path d="M1590 80 l-95 -6 90 -1 c50 -1 101 3 115 7 29 9 31 9 -110 0z"/>
</g>
</svg>
